# xmcd
#
# Track frame offsets: 
#        150
#        20385
#        37310
#        46803
#        56655
#        70223
#        83800
#        101400
#        116978
#        134878
#        162235
#        181483
#        200590
#        224213
#        242290
#        256555
#        283850
#        302468
#
# Disc length: 4203 seconds
#
# Revision: 0
# Processed by: cddbd v1.5.2PL0 Copyright (c) Steve Scherf et al.
# Submitted via: ExactAudioCopy v1.0b1
#
DISCID=0d106912
DTITLE=伊東ゆかり - プラチナ・ベスト -60カラットの愛の歌
DYEAR=2007
DGENRE=
TTITLE0=倶楽部“ゆめみ~な"
TTITLE1=ひさしぶりね
TTITLE2=林檎の木の下で
TTITLE3=私の青空
TTITLE4=テネシー・ワルツ
TTITLE5=涙のワルツ
TTITLE6=ジャニー・ギター
TTITLE7=シャンペン and ワイン
TTITLE8=雨に想いを
TTITLE9=Nobuko~渚のデイト
TTITLE10=花はどこへ行った(With 園まり)
TTITLE11=Smile+ほほえみがあれば(With 中尾ミエ)
TTITLE12=誰に会ったと思う?
TTITLE13=夏の6週間
TTITLE14=愛したすべての彼たちへ
TTITLE15=百万本のバラ
TTITLE16=あなたと別れるなら
TTITLE17=テイク・ミー・ホーム
EXTD=
EXTT0=
EXTT1=
EXTT2=
EXTT3=
EXTT4=
EXTT5=
EXTT6=
EXTT7=
EXTT8=
EXTT9=
EXTT10=
EXTT11=
EXTT12=
EXTT13=
EXTT14=
EXTT15=
EXTT16=
EXTT17=
PLAYORDER=
